<svg width="234" height="24" viewBox="0 0 234 24" fill="none" xmlns="http://www.w3.org/2000/svg">
<path d="M0.332092 0.263672H12.9801C15.6722 0.263672 17.7857 0.795579 19.3209 1.85939C20.856 2.92321 21.6235 4.36379 21.6235 6.18114C21.6235 7.51091 21.2008 8.64121 20.3554 9.57205C19.5322 10.4807 18.4087 11.1013 16.9848 11.4337C18.6757 11.7883 20.0328 12.4532 21.0562 13.4284C22.0796 14.3814 22.5913 15.6336 22.5913 17.185C22.5913 19.1131 21.7904 20.6534 20.1885 21.8059C18.6089 22.9584 16.4731 23.5346 13.7811 23.5346H0.332092V0.263672ZM6.83966 13.5613V19.0799H12.5129C13.5363 19.0799 14.3484 18.8361 14.9491 18.3485C15.572 17.8609 15.8835 17.185 15.8835 16.3206C15.8835 15.4563 15.572 14.7803 14.9491 14.2927C14.3484 13.8051 13.5363 13.5613 12.5129 13.5613H6.83966ZM11.9122 9.90449C12.8467 9.90449 13.6031 9.67178 14.1815 9.20636C14.7822 8.74094 15.0826 8.09822 15.0826 7.2782C15.0826 6.43601 14.7822 5.79329 14.1815 5.35003C13.5808 4.88462 12.8022 4.65191 11.8455 4.65191H6.83966V9.90449H11.9122Z" fill="white"/>
<path d="M26.1559 0.263672H32.6968V14.1265C32.6968 15.6336 33.0862 16.8304 33.8649 17.7169C34.6435 18.6034 35.7559 19.0466 37.2021 19.0466C38.6482 19.0466 39.7606 18.6034 40.5393 17.7169C41.318 16.8304 41.7073 15.6336 41.7073 14.1265V0.263672H48.2816V14.4257C48.2816 17.5063 47.2916 19.8777 45.3115 21.54C43.3314 23.18 40.6283 24 37.2021 24C33.7314 24 31.0171 23.1689 29.0593 21.5067C27.1237 19.8445 26.1559 17.4842 26.1559 14.4257V0.263672Z" fill="white"/>
<path d="M52.03 23.5346V19.911L63.3098 5.35003H52.3637V0.263672H72.5539V3.98702L61.3742 18.4482H73.4549V23.5346H52.03Z" fill="white"/>
<path d="M76.4882 23.5346V19.911L87.768 5.35003H76.8219V0.263672H97.012V3.98702L85.8324 18.4482H97.9131V23.5346H76.4882Z" fill="white"/>
<path d="M121.27 0.263672V5.31679H108.355V9.67178H119.234V13.6278H108.355V18.4482H121.937V23.5346H101.847V0.263672H121.27Z" fill="white"/>
<path d="M125.882 23.5346V0.263672H137.996C141.066 0.263672 143.458 0.950719 145.171 2.32481C146.884 3.69891 147.741 5.59382 147.741 8.00957C147.741 9.69394 147.318 11.1345 146.472 12.3313C145.649 13.5059 144.504 14.3925 143.035 14.9909L148.108 23.5346H140.732L136.594 16.1876H132.456V23.5346H125.882ZM137.128 11.7994C138.307 11.7994 139.264 11.5224 139.998 10.9683C140.755 10.3921 141.133 9.57205 141.133 8.50823C141.133 7.42225 140.777 6.60223 140.065 6.04816C139.353 5.49409 138.396 5.21706 137.195 5.21706H132.456V11.7994H137.128Z" fill="white"/>
<path d="M160.405 23.5346L170.383 0.263672H174.655L184.6 23.5346H180.996L178.726 18.1823H166.312L164.043 23.5346H160.405ZM177.792 15.8552L172.486 3.78756L167.213 15.8552H177.792Z" fill="white"/>
<path d="M188.613 23.5346V0.263672H200.127C202.752 0.263672 204.854 0.9618 206.434 2.35806C208.036 3.73215 208.837 5.56058 208.837 7.84335C208.837 10.1261 208.036 11.9767 206.434 13.3951C204.854 14.7914 202.752 15.4895 200.127 15.4895H192.151V23.5346H188.613ZM192.151 12.83H199.759C201.428 12.83 202.763 12.3756 203.764 11.467C204.788 10.5361 205.299 9.35042 205.299 7.90984C205.299 6.44709 204.799 5.27246 203.798 4.38595C202.796 3.47728 201.461 3.02294 199.793 3.02294H192.151V12.83Z" fill="white"/>
<path d="M213.445 23.5346V0.263672H224.959C227.584 0.263672 229.687 0.9618 231.266 2.35806C232.868 3.73215 233.669 5.56058 233.669 7.84335C233.669 10.1261 232.868 11.9767 231.266 13.3951C229.687 14.7914 227.584 15.4895 224.959 15.4895H216.983V23.5346H213.445ZM216.983 12.83H224.592C226.26 12.83 227.595 12.3756 228.596 11.467C229.62 10.5361 230.132 9.35042 230.132 7.90984C230.132 6.44709 229.631 5.27246 228.63 4.38595C227.629 3.47728 226.294 3.02294 224.625 3.02294H216.983V12.83Z" fill="white"/>
</svg>
