<svg width="24" height="21" viewBox="0 0 24 21" fill="none" xmlns="http://www.w3.org/2000/svg">
<path d="M12.0003 4.80566L3.4408 11.862C3.4408 11.872 3.4383 11.8867 3.43329 11.9066C3.42839 11.9264 3.42578 11.9408 3.42578 11.9511V19.0964C3.42578 19.3544 3.5201 19.578 3.70869 19.7662C3.89723 19.9546 4.1205 20.0494 4.37854 20.0494H10.0947V14.333H13.9059V20.0496H19.622C19.88 20.0496 20.1036 19.955 20.2919 19.7662C20.4805 19.5782 20.5751 19.3544 20.5751 19.0964V11.9511C20.5751 11.9114 20.5697 11.8815 20.5601 11.862L12.0003 4.80566Z" fill="#DDDDDD"/>
<path d="M23.8344 10.2543L20.5745 7.54498V1.47134C20.5745 1.33249 20.5299 1.2183 20.4403 1.12893C20.3515 1.03967 20.2373 0.995036 20.0981 0.995036H17.24C17.101 0.995036 16.9869 1.03967 16.8974 1.12893C16.8082 1.2183 16.7637 1.33254 16.7637 1.47134V4.37413L13.1315 1.33723C12.8143 1.07919 12.4371 0.950195 12.0003 0.950195C11.5637 0.950195 11.1865 1.07919 10.869 1.33723L0.165418 10.2543C0.0661949 10.3335 0.0118127 10.4402 0.00169755 10.5742C-0.0083655 10.7081 0.0263077 10.8251 0.105821 10.9242L1.02875 12.0259C1.10827 12.1151 1.21234 12.1697 1.34139 12.1897C1.46053 12.1997 1.57967 12.1649 1.69881 12.0855L12 3.49583L22.3014 12.0855C22.3809 12.1547 22.4849 12.1893 22.614 12.1893H22.6587C22.7876 12.1697 22.8914 12.1147 22.9714 12.0256L23.8944 10.9242C23.9738 10.8248 24.0085 10.7081 23.9982 10.574C23.988 10.4404 23.9334 10.3337 23.8344 10.2543Z" fill="#DDDDDD"/>
</svg>
