<svg width="123" height="145" viewBox="0 0 123 145" fill="none" xmlns="http://www.w3.org/2000/svg">
<path fill-rule="evenodd" clip-rule="evenodd" d="M65.1655 -0.000976562H11.5317C-5.75085 2.37361 0.187649 35.3306 10.3397 35.0242C30.0056 34.4305 34.7731 35.0242 45.4997 42.7416C54.7188 49.3744 59.0438 58.1764 59.802 66.4874C60.6144 75.3921 61.3515 89.5209 48.4793 100.919C32.3892 115.166 14.5113 111.011 6.16827 108.043C-0.506163 105.668 0.208954 108.241 1.40082 109.824C9.14793 115.76 27.6218 116.947 38.3486 112.198C46.93 108.399 48.2808 110.615 47.8835 112.198C70.2427 109.414 73.5619 94.3126 72.4053 86.6075C70.1388 86.2405 68.4086 84.2816 68.4086 81.9201C68.4086 79.2972 70.543 77.1709 73.176 77.1709C75.809 77.1709 77.9435 79.2972 77.9435 81.9201C77.9435 83.7097 76.9498 85.2682 75.482 86.0777H75.8923V88.4523C75.8923 111.248 56.8224 116.947 47.2875 116.947V125.258H11.5317C4.97641 125.258 1.40082 126.446 1.40082 135.35C1.40082 142.474 5.37369 144.255 7.36013 144.255H58.6102C111.052 149.004 128.93 118.728 121.183 95.5761C114.985 77.0543 99.1336 71.2366 91.9824 70.6429C117.012 59.9573 118.799 36.8051 109.264 18.4021C101.636 3.67963 76.6868 -0.000976562 65.1655 -0.000976562ZM76.6945 45.9588C77.2794 46.997 76.8631 48.3002 75.8025 48.8489C74.742 49.3976 73.439 48.9839 72.8518 47.9471C68.1236 39.5992 61.5214 32.4528 53.5621 27.0672C52.5735 26.3983 52.2676 25.0705 52.9044 24.0632C53.5412 23.0558 54.8794 22.7505 55.8695 23.4172C64.4777 29.2137 71.609 36.9328 76.6945 45.9588ZM66.277 49.6855C66.9218 50.6879 66.5825 52.0131 65.5559 52.6225C64.5294 53.232 63.2044 52.8947 62.5574 51.8938C58.4079 45.4743 53.1068 39.8709 46.9197 35.3644C45.955 34.6618 45.6955 33.3242 46.367 32.3395C47.0385 31.3547 48.3866 31.0958 49.3528 31.7963C56.0613 36.6596 61.8009 42.7265 66.277 49.6855Z" fill="#FFBB15"/>
<ellipse cx="21.5627" cy="73.6123" rx="11.3227" ry="11.2793" fill="#FFBB15"/>
</svg>
