<svg width="20" height="25" viewBox="0 0 20 25" fill="none" xmlns="http://www.w3.org/2000/svg">
<path d="M19.377 17.413C18.6311 16.7837 18.0316 15.9989 17.6207 15.1136C17.2097 14.2284 16.9972 13.264 16.998 12.288V9.5C16.998 5.981 14.384 3.068 10.998 2.58V1.5C10.998 1.23478 10.8927 0.98043 10.7051 0.792893C10.5176 0.605357 10.2633 0.5 9.99804 0.5C9.73282 0.5 9.47847 0.605357 9.29093 0.792893C9.10339 0.98043 8.99804 1.23478 8.99804 1.5V2.58C5.61104 3.068 2.99804 5.981 2.99804 9.5V12.288C2.99842 13.266 2.78487 14.2322 2.37235 15.1189C1.95983 16.0056 1.35833 16.7913 0.610035 17.421C0.339595 17.6541 0.146839 17.9643 0.0575807 18.31C-0.0316776 18.6557 -0.0131766 19.0205 0.110606 19.3554C0.234388 19.6903 0.457543 19.9794 0.750185 20.184C1.04283 20.3885 1.39099 20.4988 1.74804 20.5H18.248C19.213 20.5 19.998 19.715 19.998 18.75C19.998 18.238 19.775 17.754 19.377 17.413ZM9.99804 24.5C10.8621 24.4988 11.6992 24.1998 12.3685 23.6533C13.0377 23.1068 13.4981 22.3463 13.672 21.5H6.32404C6.49794 22.3463 6.95832 23.1068 7.62757 23.6533C8.29682 24.1998 9.13402 24.4988 9.99804 24.5Z" fill="#D9D9D9"/>
</svg>
