<svg width="178" height="178" viewBox="0 0 178 178" fill="none" xmlns="http://www.w3.org/2000/svg">
<path fill-rule="evenodd" clip-rule="evenodd" d="M89 178C106.603 178 123.81 172.78 138.446 163.001C153.082 153.221 164.489 139.321 171.225 123.059C177.961 106.796 179.724 88.9013 176.29 71.637C172.856 54.3727 164.379 38.5144 151.932 26.0675C139.486 13.6207 123.627 5.14423 106.363 1.71015C89.0987 -1.72393 71.2038 0.0385618 54.9412 6.77476C38.6785 13.511 24.7786 24.9183 14.9992 39.5543C5.21976 54.1903 0 71.3975 0 89C0 112.604 9.37675 135.242 26.0675 151.932C42.7582 168.623 65.3957 178 89 178ZM109.697 61.1839C109.595 58.509 108.966 55.8805 107.846 53.4488C106.727 51.0172 105.139 48.8301 103.174 47.0128C101.208 45.1955 98.9039 43.7835 96.3922 42.8579C93.8804 41.9322 91.2108 41.5109 88.5361 41.6181C85.8606 41.5096 83.19 41.93 80.6772 42.8552C78.1644 43.7803 75.8588 45.192 73.8924 47.0095C71.9259 48.8269 70.3373 51.0144 69.2175 53.4467C68.0976 55.8789 67.4685 58.5082 67.3662 61.1839C67.4678 63.8618 68.0961 66.4933 69.2151 68.9283C70.3342 71.3632 71.9221 73.5538 73.8881 75.3747C75.8541 77.1957 78.1596 78.6114 80.673 79.541C83.1864 80.4706 85.8583 80.8957 88.5361 80.7922C91.2131 80.8945 93.884 80.4684 96.3964 79.5383C98.9087 78.6082 101.213 77.1923 103.178 75.3714C105.143 73.5505 106.73 71.3604 107.849 68.9261C108.967 66.4918 109.595 63.861 109.697 61.1839ZM136.573 136.746C135.997 111.792 114.788 91.7713 88.5239 91.7713C62.2603 91.7713 41.051 111.801 40.478 136.746H136.573Z" fill="#DDDDDD"/>
</svg>
