<svg width="22" height="24" viewBox="0 0 22 24" fill="none" xmlns="http://www.w3.org/2000/svg">
<path d="M10.8485 11.5609C12.4367 11.5609 13.812 10.9912 14.9357 9.86729C16.0595 8.74361 16.6291 7.36867 16.6291 5.78027C16.6291 4.19234 16.0595 2.81727 14.9356 1.69317C13.8116 0.569623 12.4365 0 10.8485 0C9.26005 0 7.88507 0.569623 6.76139 1.69335C5.63771 2.81708 5.06785 4.1922 5.06785 5.78027C5.06785 7.36867 5.63766 8.74379 6.76158 9.86752C7.88549 10.9911 9.26061 11.5609 10.8485 11.5609ZM20.963 18.4548C20.9306 17.9871 20.865 17.4769 20.7685 16.9383C20.6711 16.3955 20.5457 15.8825 20.3955 15.4136C20.2405 14.9289 20.0295 14.4503 19.7688 13.9916C19.4982 13.5155 19.1803 13.1009 18.8236 12.7598C18.4506 12.403 17.994 12.1161 17.4659 11.9067C16.9396 11.6986 16.3564 11.5931 15.7326 11.5931C15.4876 11.5931 15.2507 11.6936 14.7931 11.9916C14.4678 12.2034 14.1416 12.4137 13.8144 12.6225C13.5 12.8228 13.0741 13.0105 12.548 13.1804C12.0348 13.3465 11.5137 13.4308 10.9993 13.4308C10.485 13.4308 9.96406 13.3465 9.45027 13.1804C8.9248 13.0107 8.4989 12.823 8.18484 12.6227C7.82062 12.39 7.49109 12.1776 7.20525 11.9913C6.74822 11.6934 6.51108 11.5929 6.26611 11.5929C5.64206 11.5929 5.05908 11.6985 4.53301 11.907C4.00529 12.1159 3.54845 12.4028 3.17509 12.76C2.81861 13.1013 2.50056 13.5157 2.23028 13.9916C1.96975 14.4502 1.75881 14.9287 1.60352 15.4138C1.45352 15.8827 1.32813 16.3955 1.23072 16.9383C1.13421 17.4762 1.06868 17.9866 1.03624 18.4553C1.00397 18.927 0.987977 19.3997 0.988286 19.8725C0.988286 21.1254 1.38653 22.1395 2.17187 22.8875C2.94751 23.6257 3.97379 24.0001 5.22183 24.0001H16.778C18.026 24.0001 19.0519 23.6258 19.8277 22.8876C20.6133 22.1401 21.0115 21.1257 21.0115 19.8723C21.0113 19.3888 20.9951 18.9118 20.963 18.4548Z" fill="#D9D9D9"/>
</svg>
