<svg width="24" height="24" viewBox="0 0 24 24" fill="none" xmlns="http://www.w3.org/2000/svg">
<path d="M19.8577 18.1839L15.9849 14.3731C16.9991 13.2712 17.6222 11.814 17.6222 10.2105C17.6217 6.78032 14.7964 4 11.3109 4C7.82535 4 5 6.78032 5 10.2105C5 13.6407 7.82535 16.421 11.3109 16.421C12.8168 16.421 14.1981 15.9001 15.2831 15.0341L19.1708 18.86C19.3603 19.0467 19.6678 19.0467 19.8572 18.86C19.9023 18.816 19.9381 18.7635 19.9626 18.7054C19.987 18.6474 19.9997 18.5851 19.9997 18.5221C19.9997 18.4591 19.9872 18.3968 19.9628 18.3387C19.9384 18.2806 19.9027 18.228 19.8577 18.1839ZM11.3109 15.4655C8.36174 15.4655 5.97101 13.1128 5.97101 10.2105C5.97101 7.30826 8.36174 4.95552 11.3109 4.95552C14.26 4.95552 16.6507 7.30826 16.6507 10.2105C16.6507 13.1128 14.26 15.4655 11.3109 15.4655Z" fill="white" stroke="white" stroke-width="2"/>
</svg>
